<svg xmlns="http://www.w3.org/2000/svg" xml:space="preserve" width="2000" height="139" data-id="lg_9SnP1U92ZZ0E6U0F1L" data-version="1" viewBox="0 0 2000 139"><g data-padding="20"><g transform="translate(10 2.368)scale(.96593)"><rect width="586.587" height="138.652" x="317.837" y="-399.736" fill="none" rx="0" ry="0" transform="translate(413.79 399.91)"/><path fill="#113f67" d="M780.22 109.26q-22.46 0-34.66-11.78-12.21-11.78-12.21-37.67t12.21-37.67q12.2-11.78 34.66-11.78 22.45 0 34.66 11.78t12.21 37.67-12.21 37.67-34.66 11.78m0-21.84q4.17 0 6.26-2.21 2.08-2.21 2.08-6.87V41.28q0-4.66-2.08-6.87-2.09-2.21-6.26-2.21t-6.26 2.21-2.09 6.87v37.06q0 4.78 2.09 6.93t6.26 2.15M936.17 32.2V12.08h39.27V32.2h-4.91l-18.29 75.34h-36.68l-11.17-53.01h-1.23l-11.77 53.01H854.7L835.19 32.2h-4.91V12.08h45.4V32.2h-4.66l4.78 31.29h1.23l11.66-51.41h35.33l10.8 51.41h1.23l4.78-31.29Zm113.87 0V12.08h40.24V32.2h-6.13v75.34h-34.48l-35.95-55.34v35.22h5.89v20.12h-40.25V87.42h6.14V32.2h-6.14V12.08h44.3l32.27 49.2V32.2Zm44.91 75.34V87.42h6.13V32.33h-6.13V12.08h49.81q20.49 0 32.58 11.23 12.09 11.22 12.09 36.5t-12.09 36.5q-12.09 11.23-32.58 11.23Zm40.49-20.12h7.11q4.18 0 6.26-2.21 2.09-2.21 2.09-6.87V41.28q0-9.08-8.35-9.08h-7.11Zm58.16 20.12V87.42h6.13V32.2h-6.13V12.08h56.32q15.83 0 24.17 6.5 8.34 6.51 8.34 21.11 0 8.22-3.31 14.23t-9.45 8.34l.12 1.23q11.78 1.84 11.78 14.48v9.45h5.77v20.12h-38.9V78.71q0-4.79-1.41-7.24-1.41-2.46-4.41-3.32-3.01-.85-8.53-.85v20.12h8.1v20.12Zm40.49-55.21h6.62q3.56 0 5.34-1.91 1.78-1.9 1.78-5.95v-4.41q0-4.05-1.78-5.96-1.78-1.9-5.34-1.9h-6.62Zm79.26 55.21h-19.14V87.42h19.14Z"/></g><path fill="transparent" stroke="transparent" d="M706.5 0h587v139h-587z"/></g></svg>